<svg width="13" height="13" viewBox="0 0 13 13" fill="none" xmlns="http://www.w3.org/2000/svg">
<path d="M5.15 6.69499C5.37117 6.99067 5.65334 7.23532 5.97737 7.41236C6.30141 7.58939 6.65972 7.69467 7.02802 7.72104C7.39632 7.74742 7.76599 7.69428 8.11194 7.56523C8.4579 7.43618 8.77205 7.23423 9.0331 6.97309L10.5781 5.42809C11.0472 4.94244 11.3067 4.29199 11.3008 3.61683C11.295 2.94168 11.0242 2.29584 10.5467 1.81841C10.0693 1.34098 9.42346 1.07017 8.74831 1.06431C8.07315 1.05844 7.4227 1.31798 6.93705 1.78704L6.05125 2.66769M7.21 5.66499C6.98883 5.36932 6.70666 5.12466 6.38263 4.94763C6.05859 4.77059 5.70027 4.66532 5.33197 4.63894C4.96368 4.61256 4.59401 4.6657 4.24806 4.79475C3.9021 4.92381 3.58795 5.12575 3.3269 5.38689L1.7819 6.93189C1.31284 7.41754 1.0533 8.06799 1.05916 8.74315C1.06503 9.41831 1.33584 10.0641 1.81327 10.5416C2.29069 11.019 2.93653 11.2898 3.61169 11.2957C4.28685 11.3015 4.9373 11.042 5.42295 10.5729L6.3036 9.69229" stroke="#1E1E1E" stroke-width="1.4" stroke-linecap="round" stroke-linejoin="round"/>
</svg>
